<svg width="24" height="21" viewBox="0 0 24 21" fill="none" xmlns="http://www.w3.org/2000/svg">
<path fill-rule="evenodd" clip-rule="evenodd" d="M19.7341 2.15253L23.7887 6.12242C24.0592 6.38722 24.0715 6.81856 23.8168 7.09831L21.1655 10.0088C20.9187 10.2798 20.5053 10.3157 20.2155 10.0915L18.5693 8.8182L18.4025 19.9201C18.3967 20.3042 18.0836 20.6126 17.6994 20.6126H6.30067C5.91648 20.6126 5.6034 20.3042 5.59764 19.9201L5.43081 8.8182L3.78465 10.0915C3.49478 10.3157 3.08139 10.2797 2.83464 10.0088L0.183341 7.09831C-0.0715187 6.81856 -0.0592375 6.38722 0.211231 6.12242L4.26592 2.15253C5.21003 1.22806 6.45779 0.71895 7.7792 0.71895H8.1264C8.16264 0.689231 8.20239 0.6627 8.24547 0.640012L9.30714 0.0811216C9.65068 -0.0998159 10.076 0.0321372 10.2569 0.375778C10.3146 0.485418 10.3401 0.603356 10.3375 0.718997H13.6625C13.6599 0.603309 13.6854 0.485418 13.7431 0.375778C13.924 0.0321841 14.3492 -0.0998628 14.6928 0.0811216L15.7545 0.640012C15.7976 0.6627 15.8373 0.689231 15.8736 0.71895H16.2208C17.5422 0.71895 18.7899 1.22806 19.7341 2.15253ZM9.15348 10.8834C9.54179 10.8834 9.85661 10.5686 9.85661 10.1803V4.86912C9.85661 4.48081 9.54179 4.166 9.15348 4.166C8.76517 4.166 8.45036 4.48081 8.45036 4.86912V10.1803C8.45036 10.5686 8.76517 10.8834 9.15348 10.8834ZM15.5496 8.62582C15.5496 9.87068 14.5369 10.8834 13.292 10.8834C12.0471 10.8834 11.0344 9.87068 11.0344 8.62582V6.42364C11.0344 5.17878 12.0471 4.166 13.292 4.166C14.5369 4.166 15.5496 5.17873 15.5496 6.42364V8.62582ZM12.4406 6.42364C12.4406 5.95418 12.8225 5.57225 13.292 5.57225C13.7614 5.57225 14.1434 5.95418 14.1434 6.42364V8.62582C14.1434 9.09528 13.7615 9.47717 13.292 9.47717C12.8225 9.47717 12.4406 9.09528 12.4406 8.62582V6.42364Z" fill="#ACACAC"/>
</svg>
